<svg width="100%" height="100%" xmlns="http://www.w3.org/2000/svg"><defs><pattern id="p" width="100" height="100" patternUnits="userSpaceOnUse" patternTransform="scale(1.5)"><path d="M50 0L52.165 24.57L75.43 25.43L55.865 42.165L65.43 64.57L50 50L34.57 64.57L44.135 42.165L24.57 25.43L47.835 24.57Z" stroke="#1F2937" stroke-width="1" fill="none" transform="rotate(25 25 25)"></path></pattern></defs><rect width="100%" height="100%" fill="#111827"></rect><rect width="100%" height="100%" fill="url(#p)" opacity="0.1"></rect></svg>
<svg width="800px" height="800px" viewBox="0 0 1024 1024" xmlns="http://www.w3.org/2000/svg" fill="#000000"><g id="SVGRepo_bgCarrier" stroke-width="0"></g><g id="SVGRepo_tracerCarrier" stroke-linecap="round" stroke-linejoin="round"></g><g id="SVGRepo_iconCarrier"><path fill="#1F2937" d="M512 64a448 448 0 1 1 0 896 448 448 0 0 1 0-896zm0 832a384 384 0 0 0 0-768V128a384 384 0 0 0 0 768z"></path><path fill="#1F2937" d="M512 960a448 448 0 1 1 0-896 448 448 0 0 1 0 896zm0-832a384 384 0 0 0-384 384h64a320 320 0 1 1 320-320v-64z"></path><path fill="#1F2937" d="M512 960a448 448 0 1 1 0-896 448 448 0 0 1 0 896zM288.704 224A383.68 383.68 0 0 0 192 512h64a320.32 320.32 0 0 1 80.896-213.312L288.704 224zM735.296 736A383.68 383.68 0 0 0 832 512h-64a319.936 319.936 0 0 1-80.896 213.312L735.296 736z"></path><path fill="#1F2937" d="M799.104 298.688A383.616 383.616 0 0 0 512 192v64a320 320 0 0 1 213.312 80.896L799.104 298.688zM224.896 725.312A383.616 383.616 0 0 0 512 832v-64a320 320 0 0 1-213.312-80.896L224.896 725.312z"></path><path fill="#1F2937" d="M96 512a416 416 0 1 1 832 0 416 416 0 0 1-832 0zm416-352a352 352 0 1 0 0 704 352 352 0 0 0 0-704z"></path><path fill="#1F2937" d="M512 64a448 448 0 1 1 0 896 448 448 0 0 1 0-896zm0 832a384 384 0 1 0 0-768 384 384 0 0 0 0 768zM576 448a64 64 0 1 1-128 0 64 64 0 0 1 128 0zm-64-192a64 64 0 1 1 0 128 64 64 0 0 1 0-128zm0 320a64 64 0 1 1 0 128 64 64 0 0 1 0-128zm-192-64a64 64 0 1 1 0-128 64 64 0 0 1 0 128zm320 0a64 64 0 1 1 0-128 64 64 0 0 1 0 128z"></path></g></svg>